<svg width="32" height="32" viewBox="0 0 32 32" fill="none" xmlns="http://www.w3.org/2000/svg">
<path fill-rule="evenodd" clip-rule="evenodd" d=" " fill="#F75A68"/>
<path fill-rule="evenodd" clip-rule="evenodd" d=".6648 12.0791 15.6648 12.4696 16.0553L16 19.5857L19.5304 16.0553C19.9209 15.6648 20.5541 15.6648 20.9446 16.0553C21.3351 16.4459 21.3351 17.079 20.9446 17.4696L16.7071 21.7071C16.3166 22.0976 15.6834 22.0976 15.2929 21.7071L11.0554 17.4696C10.6649 17.079 10.6649 16.4459 11.0554 16.0553Z" fill="#F75A"/>
<path fill-rule="evenodd" clip-rule="evenodd" d="M16.0001 10C16.5523 10 17.0001 10.4477 17.0001 11L17.0001 21C17.0001 21.5523 16.5523 22 16.0001 22C15.4478 22 15.0001 21.5523 15.0001 21L15.0001 11C15.0001 10.4477 15.4478 10 16.0001 10Z" fill=""/>
</svg>
